PathFileType	4	(X/Y/Z)	/Users/itak/Documents/Research/Walk-IL/dataset/trc/00153_00007.trc
DataRate	CameraRate	NumFrames	NumMarkers	Units	OrigDataRate	OrigDataStartFrame	OrigNumFrames
100.000000	100.000000	4	53	mm	100.000000	328	525
Frame#	Time	RPSI			LPSI			L3			STRN			T10			C7			CLAV			RBAK			LBAK			LSHO			LUPA			LAEL			LAOL			LWTS			LWPS			LFRA			LIFD			LHPS			LHTS			RSHO			RUPA			RAEL			RAOL			RWTS			RWPS			RFRA			RIFD			RHTS			RHPS			RBHD			LFHD			RFHD			LBHD			LHIP			RHIP			RASI			LASI			LKNE			LTHI			LANK			LTIP			LTOE			LMT1			LMT5			LHEE			RKNE			RTHI			RANK			RTIP			RTOE			RMT1			RMT5			RHEE			
		X1	Y1	Z1	X2	Y2	Z2	X3	Y3	Z3	X4	Y4	Z4	X5	Y5	Z5	X6	Y6	Z6	X7	Y7	Z7	X8	Y8	Z8	X9	Y9	Z9	X10	Y10	Z10	X11	Y11	Z11	X12	Y12	Z12	X13	Y13	Z13	X14	Y14	Z14	X15	Y15	Z15	X16	Y16	Z16	X17	Y17	Z17	X18	Y18	Z18	X19	Y19	Z19	X20	Y20	Z20	X21	Y21	Z21	X22	Y22	Z22	X23	Y23	Z23	X24	Y24	Z24	X25	Y25	Z25	X26	Y26	Z26	X27	Y27	Z27	X28	Y28	Z28	X29	Y29	Z29	X30	Y30	Z30	X31	Y31	Z31	X32	Y32	Z32	X33	Y33	Z33	X34	Y34	Z34	X35	Y35	Z35	X36	Y36	Z36	X37	Y37	Z37	X38	Y38	Z38	X39	Y39	Z39	X40	Y40	Z40	X41	Y41	Z41	X42	Y42	Z42	X43	Y43	Z43	X44	Y44	Z44	X45	Y45	Z45	X46	Y46	Z46	X47	Y47	Z47	X48	Y48	Z48	X49	Y49	Z49	X50	Y50	Z50	X51	Y51	Z51	X52	Y52	Z52	X53	Y53	Z53	

329	3.28	24.56864738464355	1107.353393554688	-230.5831604003906	130.8390197753906	1109.436157226562	-308.4237670898438	69.69896697998047	1146.341918945312	-278.5352478027344	191.1733856201172	1347.219482421875	-94.3580322265625	58.62142562866211	1297.073364257812	-309.3732604980469	86.00553131103516	1589.28955078125	-285.67578125	171.9004974365234	1481.888793945312	-125.6843338012695	-14.02348709106445	1403.01708984375	-288.2926330566406	170.3170318603516	1571.170532226562	-343.7019348144531	272.61572265625	1557.586181640625	-303.5648803710938	324.0757141113281	1427.898315429688	-358.1335754394531	357.5469055175781	1211.117797851562	-361.4671630859375	273.8227233886719	1194.525268554688	-385.3073120117188	387.7557373046875	955.742431640625	-251.1536407470703	367.8450927734375	927.80615234375	-333.4266357421875	375.384033203125	1095.806030273438	-349.588134765625	384.6240844726562	763.6718139648438	-224.7227020263672	386.3585510253906	854.0809326171875	-307.9481811523438	408.3525695800781	867.9608154296875	-243.0525054931641	-41.54404067993164	1568.164184570312	-146.0333709716797	-102.9217910766602	1493.681884765625	-130.8586273193359	-123.364128112793	1198.545288085938	-132.4291381835938	-41.37052917480469	1198.7421875	-184.5547027587891	-31.6530933380127	963.8721313476562	-3.418311595916748	-96.55880737304688	942.750244140625	-52.7261962890625	-124.5740737915039	1126.855590820312	-101.8925933837891	4.394088268280029	771.9573974609375	15.23117256164551	-17.30880355834961	857.43896484375	28.07703971862793	-75.69512176513672	845.0218505859375	-15.26898384094238	36.11804580688477	1759.232299804688	-213.2707672119141	218.5848693847656	1827.949951171875	-107.1722030639648	99.13136291503906	1820.907348632812	-56.01168823242188	157.7618865966797	1770.744140625	-270.905029296875	275.3316040039062	1022.443664550781	-290.3558959960938	-0.7497587203979492	1016.509399414062	-55.61722564697266	86.56664276123047	1091.909301757812	-23.09926795959473	298.73583984375	1088.901123046875	-178.9436950683594	328.1548767089844	513.91015625	-219.6993103027344	317.4636535644531	667.1849975585938	-257.4006042480469	83.24208068847656	196.0333251953125	-584.551025390625	217.2235717773438	375.9958190917969	-431.4874572753906	133.1260223388672	37.55035018920898	-431.7978210449219	75.94013977050781	91.75814056396484	-447.8104553222656	136.3492736816406	91.87189483642578	-546.0460815429688	14.41775608062744	255.6139373779297	-573.0073852539062	114.2092590332031	530.7672729492188	-52.39648818969727	45.01845550537109	803.0243530273438	-32.27856063842773	167.2565460205078	24.87965393066406	-148.6110687255859	115.3018951416016	394.1988830566406	-64.95645141601562	310.310791015625	46.58594131469727	39.65414047241211	323.4009704589844	40.49182510375977	-33.07051086425781	202.7936401367188	39.30768203735352	-18.53375434875488	186.4362182617188	27.61589050292969	-220.1915283203125	
330	3.29	29.72795867919922	1107.637329101562	-224.9953918457031	136.2247467041016	1109.659912109375	-301.9480285644531	74.70768737792969	1146.546264648438	-272.6560668945312	194.4754028320312	1348.023803710938	-87.59088897705078	63.30257034301758	1297.4931640625	-303.4825439453125	90.37482452392578	1589.798828125	-279.6026306152344	175.5522613525391	1482.66650390625	-119.2177505493164	-9.898035049438477	1403.678833007812	-282.5519104003906	174.8994598388672	1571.6533203125	-337.2808532714844	277.1126403808594	1558.126098632812	-296.7699584960938	328.5453491210938	1428.285766601562	-351.0520935058594	361.4146728515625	1211.331665039062	-354.1360778808594	277.7970581054688	1195.057495117188	-378.1267395019531	390.7380065917969	955.4634399414062	-244.9225463867188	370.748046875	928.0437622070312	-327.3295593261719	378.8075866699219	1095.872436523438	-342.5116577148438	387.3461303710938	763.2817993164062	-219.6552581787109	389.1850280761719	854.1807250976562	-302.3188781738281	411.2076721191406	867.625	-237.3402404785156	-37.72864151000977	1568.994506835938	-140.5109558105469	-99.20188140869141	1494.57421875	-125.2291793823242	-119.6835174560547	1199.34814453125	-124.7670974731445	-37.71603393554688	1199.176147460938	-176.99267578125	-27.3919849395752	966.118408203125	6.428337097167969	-92.31511688232422	944.393310546875	-42.58621215820312	-120.705192565918	1127.888549804688	-93.55605316162109	8.953075408935547	774.4990234375	27.12143707275391	-12.83774280548096	860.0858764648438	39.06214141845703	-71.24871826171875	847.112548828125	-4.117835521697998	40.48671340942383	1759.878784179688	-207.3778381347656	222.5014801025391	1828.42822265625	-100.5111770629883	102.8708190917969	1821.547973632812	-49.82361221313477	162.3818511962891	1771.366088867188	-264.5564270019531	280.8836364746094	1023.037048339844	-281.6011047363281	1.950874447822571	1017.217346191406	-50.9847297668457	88.64891815185547	1092.689819335938	-16.85042953491211	302.5897216796875	1089.82568359375	-170.3320617675781	337.9795837402344	515.8515014648438	-202.6631622314453	326.2467346191406	668.5114135742188	-243.1385192871094	100.2281951904297	197.5931396484375	-570.6949462890625	230.1479034423828	377.3482971191406	-415.7453002929688	154.3365173339844	39.58446502685547	-418.4193115234375	95.49815368652344	92.37135314941406	-434.5701599121094	157.1156158447266	95.70182800292969	-532.1018676757812	29.23300933837891	254.5793609619141	-559.9070434570312	114.301139831543	530.3096313476562	-50.24983596801758	46.74287414550781	803.0596923828125	-28.12741661071777	167.1985168457031	24.82932662963867	-148.5550079345703	115.1420669555664	393.9573059082031	-63.72375869750977	310.1015625	45.78079986572266	40.19469451904297	323.4146423339844	40.50664901733398	-32.75190353393555	202.6646881103516	38.95845031738281	-18.36064147949219	186.3941192626953	27.70810127258301	-220.1318206787109	
331	3.3	34.82795333862305	1107.910400390625	-219.4310607910156	141.5112457275391	1109.938110351562	-295.4844360351562	79.79413604736328	1146.777465820312	-266.7472839355469	197.6792449951172	1348.83349609375	-80.85047149658203	67.83717346191406	1297.951538085938	-297.7092590332031	94.72451782226562	1590.31591796875	-273.60205078125	179.1306762695312	1483.4501953125	-112.7950592041016	-5.779424667358398	1404.341552734375	-276.9264526367188	179.4844512939453	1572.15234375	-330.8970947265625	281.5906372070312	1558.707641601562	-289.9650573730469	333.0374145507812	1428.73828125	-343.986328125	365.2916870117188	1211.646484375	-346.9853515625	281.7147827148438	1195.6728515625	-371.0784301757812	393.7582092285156	955.306396484375	-238.715087890625	373.6143188476562	928.338134765625	-321.2207946777344	382.2476196289062	1096.042358398438	-335.5928955078125	390.0045776367188	763.03955078125	-214.4323883056641	391.9393005371094	854.3446655273438	-296.6206359863281	414.036376953125	867.4017333984375	-231.5901641845703	-33.96825790405273	1569.829711914062	-135.1095886230469	-95.53231048583984	1495.468994140625	-119.7330093383789	-116.0693054199219	1200.168701171875	-117.1780090332031	-34.12130355834961	1199.616821289062	-169.4848785400391	-23.28042030334473	968.4059448242188	16.21962738037109	-88.14836883544922	946.0733032226562	-32.52447891235352	-116.891227722168	1128.883178710938	-85.30471801757812	13.35708999633789	777.0955810546875	38.99665451049805	-8.539361953735352	862.78076171875	50.0054931640625	-66.92948150634766	849.2523803710938	6.967946529388428	44.80327987670898	1760.566772460938	-201.5191192626953	226.3905487060547	1828.856689453125	-93.85661315917969	106.5769577026367	1822.130859375	-43.65217971801758	166.9383697509766	1772.028686523438	-258.22509765625	286.2778015136719	1023.720703125	-272.9119262695312	4.533578872680664	1017.812805175781	-46.44137954711914	90.59342193603516	1093.412963867188	-10.67696857452393	306.3499450683594	1090.791137695312	-161.7312469482422	347.3711853027344	518.0927734375	-185.8129425048828	334.6750793457031	670.0316162109375	-229.0654907226562	117.6902084350586	197.97802734375	-556.00244140625	242.9289093017578	378.4053955078125	-399.8332824707031	176.0238952636719	41.43527221679688	-403.3787841796875	115.5414276123047	92.43625640869141	-420.0640258789062	178.4775390625	98.81431579589844	-516.7138061523438	44.42409515380859	252.1921997070312	-546.3468627929688	114.2728042602539	529.8626708984375	-48.27981567382812	48.37470626831055	803.0750732421875	-24.14612007141113	167.1582489013672	24.78939628601074	-148.5164489746094	114.8455123901367	393.73193359375	-62.70712280273438	309.8703918457031	45.11558532714844	40.6789665222168	323.392822265625	40.60246276855469	-32.44900131225586	202.514404296875	38.66225051879883	-18.22723960876465	186.3729553222656	27.80697441101074	-220.0883941650391	
332	3.31	39.82417297363281	1108.189819335938	-213.9059448242188	146.7149810791016	1110.267456054688	-289.0285034179688	84.96974945068359	1147.03662109375	-260.8060607910156	200.7883148193359	1349.635009765625	-74.11450958251953	72.26927947998047	1298.437744140625	-292.0255126953125	99.06932067871094	1590.836669921875	-267.6631164550781	182.6309356689453	1484.224487304688	-106.397102355957	-1.646311163902283	1404.992797851562	-271.4071655273438	184.0857391357422	1572.6533203125	-324.5318908691406	286.0544128417969	1559.295776367188	-283.1291809082031	337.5533752441406	1429.2197265625	-336.9154663085938	369.1956176757812	1212.024047851562	-339.9928283691406	285.6067199707031	1196.354125976562	-364.1728820800781	396.8156433105469	955.2455444335938	-232.5028991699219	376.4939270019531	928.6560668945312	-315.0856018066406	385.7366638183594	1096.287231445312	-328.8165588378906	392.5602111816406	762.9149169921875	-209.0086364746094	394.6458435058594	854.5346069335938	-290.8189697265625	416.8255920410156	867.2606811523438	-225.7544250488281	-30.26509666442871	1570.65625	-129.8223266601562	-91.91990661621094	1496.351806640625	-114.3816452026367	-112.5219421386719	1200.991455078125	-109.6691818237305	-30.56880760192871	1200.050903320312	-162.0371856689453	-19.31721687316895	970.7200317382812	25.93789100646973	-84.05416870117188	947.7678833007812	-22.55790138244629	-113.1453399658203	1129.85107421875	-77.14736938476562	17.62882041931152	779.7369384765625	50.84005355834961	-4.393741130828857	865.5135498046875	60.89120101928711	-62.73108673095703	851.4234619140625	17.97028923034668	49.05218505859375	1761.28369140625	-195.6658477783203	230.2512817382812	1829.239501953125	-87.21347045898438	110.2471160888672	1822.661987304688	-37.49345779418945	171.4216766357422	1772.71142578125	-251.9031677246094	291.536865234375	1024.482055664062	-264.2884216308594	6.984217166900635	1018.280944824219	-41.94109344482422	92.42015838623047	1094.066772460938	-4.589042186737061	310.0178833007812	1091.787353515625	-153.1485595703125	356.3253784179688	520.5961303710938	-169.1736602783203	342.7576293945312	671.7183837890625	-215.1890869140625	135.5760650634766	197.19384765625	-540.501953125	255.5923919677734	379.1373291015625	-383.7837219238281	197.9113159179688	43.06095123291016	-386.6739807128906	135.8541412353516	92.00176239013672	-404.2732238769531	200.2076110839844	101.1502685546875	-499.9036560058594	60.02319717407227	248.5230255126953	-532.3458862304688	114.1820297241211	529.4422607421875	-46.44914627075195	49.92564392089844	803.0707397460938	-20.32927131652832	167.1276702880859	24.7587776184082	-148.4943389892578	114.4881057739258	393.5336303710938	-61.84642791748047	309.6311340332031	44.59232711791992	41.10039901733398	323.33544921875	40.76669311523438	-32.17490005493164	202.3446350097656	38.41860961914062	-18.12919616699219	186.3769378662109	27.91133880615234	-220.0596313476562	
